# xmcd
#
# Track frame offsets: 
#        150
#        9441
#        20957
#        29140
#        42662
#        54473
#        65113
#        74004
#        82522
#        92179
#        101977
#        113265
#        123395
#        134309
#        143867
#        155195
#        164481
#        175852
#        186532
#        198691
#        209373
#        217568
#        228498
#        239790
#        253927
#
# Disc length: 3566 seconds
#
# Revision: 0
# Processed by: cddbd v1.5.2PL0 Copyright (c) Steve Scherf et al.
# Submitted via: ExactAudioCopyFreeDBPlugin 1.0
#
DISCID=850dec19
DTITLE=Various Artist - Lonesome Highway - Farther Up The Road CD4
DYEAR=2015
DGENRE=Country
TTITLE0=Gene Vincent - Race With The Devil
TTITLE1=Gene Vincent - Pink Thunderbird
TTITLE2=Jerry Lee Lewis - End Of The Road
TTITLE3=Bobby "Blue" Bland - Farther Up The Road
TTITLE4=Vince Taylor - Brand New Cadillac
TTITLE5=Bob Luman - Red Cadillac And A Black Moustache
TTITLE6=Howard Brady - Hot Rod Boogie
TTITLE7=Slick Slavin - Speed Crazy
TTITLE8=Warren Smith - Uranium Rock
TTITLE9=Gene Vincent - Rocky Road Blues
TTITLE10=Robert Mitchum - The Ballad Of Thunder Road
TTITLE11=Carl Perkins - Pop, Let Me Have The Car
TTITLE12=Jimmy Carroll - Big Green Car
TTITLE13=Jimmy Stevens - Scramble
TTITLE14=Joyce Green - Black Cadillac
TTITLE15=Duane Eddy - Forty Miles Of Bad Road
TTITLE16=Jimmy Gallagher - Ford And Shaker
TTITLE17=Walt Benton - Big Wheel
TTITLE18=Ray Burden - Hot Rodder's Dream
TTITLE19=Bobby Johnston - Flat Tire
TTITLE20=Chuck Berry - Jaguar And Thunderbird
TTITLE21=Frank Thayer - Long Grey Highway
TTITLE22=The Duals - Stick Shift
TTITLE23=Sleepy LaBeef - Ride On Josephine
TTITLE24=Glen Campbell - Long Black Limousine
EXTD=
EXTT0=
EXTT1=
EXTT2=
EXTT3=
EXTT4=
EXTT5=
EXTT6=
EXTT7=
EXTT8=
EXTT9=
EXTT10=
EXTT11=
EXTT12=
EXTT13=
EXTT14=
EXTT15=
EXTT16=
EXTT17=
EXTT18=
EXTT19=
EXTT20=
EXTT21=
EXTT22=
EXTT23=
EXTT24=
PLAYORDER=
